<svg xmlns="http://www.w3.org/2000/svg" viewBox="0 0 360 240" role="img" aria-label="Visibilité illustration">
  <defs>
    <linearGradient id="visBg" x1="0" y1="0" x2="0" y2="1">
      <stop offset="0%" stop-color="#E4F0FA" />
      <stop offset="100%" stop-color="#FFFFFF" />
    </linearGradient>
  </defs>
  <rect width="360" height="240" fill="url(#visBg)" />

  <!-- broadcast rings (megaphone signal) -->
  <g fill="none" stroke="#2A7AC4" stroke-width="2" opacity="0.5">
    <path d="M 200,80 Q 230,80 240,120 Q 230,160 200,160" />
    <path d="M 220,60 Q 270,60 285,120 Q 270,180 220,180" opacity="0.4" />
  </g>

  <!-- Megaphone -->
  <g transform="translate(80, 95)">
    <path d="M 0,15 L 80,0 L 110,5 L 110,55 L 80,60 L 0,45 Z" fill="#2A7AC4" />
    <rect x="110" y="20" width="20" height="20" rx="4" fill="#1A5687" />
    <!-- handle -->
    <rect x="10" y="48" width="22" height="40" rx="4" fill="#1A5687" />
    <!-- highlight -->
    <path d="M 0,15 L 80,0 L 78,5 L 6,17 Z" fill="#FFFFFF" opacity="0.25" />
  </g>

  <!-- Profile card (the boosted profile) -->
  <g transform="translate(180, 90)">
    <rect x="0" y="0" width="150" height="110" rx="10" fill="#FFFFFF" stroke="#2A7AC4" stroke-width="2" />
    <!-- Sponsored badge top-right -->
    <g>
      <rect x="98" y="-8" width="60" height="22" rx="11" fill="#F5A623" />
      <text x="128" y="7" text-anchor="middle" font-family="Poppins, sans-serif" font-weight="700" font-size="10" fill="#1A0A3E">Sponsorisé</text>
    </g>
    <!-- avatar -->
    <circle cx="30" cy="40" r="20" fill="#FBEAE2" stroke="#D9613A" stroke-width="2" />
    <circle cx="30" cy="34" r="7" fill="#8B5A3C" />
    <path d="M 14,52 Q 30,42 46,52 L 46,58 L 14,58 Z" fill="#D9613A" />
    <!-- text rows -->
    <rect x="60" y="32" width="80" height="6" rx="3" fill="#1A0A3E" opacity="0.85" />
    <rect x="60" y="44" width="60" height="5" rx="3" fill="#1A0A3E" opacity="0.35" />
    <!-- skill chips -->
    <rect x="12" y="74" width="46" height="18" rx="9" fill="#E4F0FA" />
    <text x="35" y="86" text-anchor="middle" font-family="Inter, sans-serif" font-weight="600" font-size="9" fill="#2A7AC4">Vérifié</text>
    <rect x="64" y="74" width="42" height="18" rx="9" fill="#E6F7EE" />
    <text x="85" y="86" text-anchor="middle" font-family="Inter, sans-serif" font-weight="600" font-size="9" fill="#1FA85F">95/100</text>
  </g>

  <!-- Stars (boosted signal) -->
  <g fill="#F5A623">
    <polygon points="320,40 322,46 328,46 323,50 325,56 320,52 315,56 317,50 312,46 318,46" />
    <polygon points="48,200 50,205 56,205 51,209 53,214 48,211 43,214 45,209 40,205 46,205" />
    <polygon points="305,210 307,215 313,215 308,219 310,224 305,221 300,224 302,219 297,215 303,215" />
  </g>
</svg>
